<?xml version="1.0" encoding="utf-8"?>
<!-- Generator: Adobe Illustrator 21.0.0, SVG Export Plug-In . SVG Version: 6.00 Build 0)  -->
<svg version="1.1" id="Layer_1" xmlns="http://www.w3.org/2000/svg" xmlns:xlink="http://www.w3.org/1999/xlink" x="0px" y="0px"
	 viewBox="0 0 511.9 512" style="enable-background:new 0 0 511.9 512;" xml:space="preserve">
<style type="text/css">
	.st0{fill:#141F38;}
</style>
<title>r2d2_style_1</title>
<path class="st0" d="M214.1,107.9L208,97.3l22-12.6l6.2,10.6L214.1,107.9z M141.7,135.4l-54.6,31.8c0.4,4.2,1,8.4,1.8,12.7
	c0,0.1,0,0.3,0.1,0.4l58.9-34.2L141.7,135.4z M442.5,313.7l6.2,30.3c2.7,13.4-3.4,27-15.2,33.8l-14.1,8.1v62.2
	c6.7,1,12.3,5.5,14.6,11.9l9.7,25.6c4.8,12.6-4,26.3-16.9,26.3h-91.7c-12.9,0-21.6-13.7-16.9-26.3l9.7-25.6
	c2.3-6.4,7.9-10.9,14.6-11.9v-17.9l-1.2,0.7c-11.8,6.8-26.6,5.3-36.9-3.7l-23.6-21c-13.4,6.7-28.7,8.5-43.4,5.2l-21.3,37
	c5.9,1.5,10.8,5.8,12.9,11.6l9.7,25.6c4.8,12.6-4,26.3-16.9,26.3H117.6c-12.9,0-21.7-13.7-16.9-26.3l9.7-25.6
	c2.6-7.1,9.4-11.9,17-12h1.9l52.5-91.5l-56.1-96.3l265.6-152L461.7,229C478.5,257.9,470.1,294.9,442.5,313.7z M311.5,272.7
	c18.2-10.5,24.4-33.7,13.9-51.9c-10.5-18.2-33.7-24.4-51.9-13.9c-18.2,10.5-24.4,33.7-13.9,51.9c1.2,2.2,2.7,4.2,4.3,6.1L158.8,448
	H187l98.3-170.9C294.3,278.9,303.6,277.3,311.5,272.7L311.5,272.7z M393.8,400.7l-25.6,14.8V448h25.6V400.7z M423.6,349.1l-4.4-21.3
	l-75.2,43.4l0,0l-1.5,0.9l0,0l-37.4,21.6l16.3,14.5c1.1,1,2.5,1.5,4,1.5c1.1,0,2.1-0.3,3-0.8l92.1-53.2
	C422.9,354.3,424.1,351.7,423.6,349.1L423.6,349.1z M292.4,227.4c-2.2,0-4.3,0.6-6.2,1.7c-5.9,3.4-8,11-4.5,17
	c2.2,3.8,6.3,6.2,10.8,6.2c2.2,0,4.3-0.6,6.2-1.7c5.9-3.4,8-11,4.5-17C300.9,229.8,296.8,227.4,292.4,227.4z M106.9,228
	c-4.2-7.2-7.8-14.7-10.8-22.4l70.2-40.7c9.1-5.1,12.3-16.7,7.1-25.7c0-0.1-0.1-0.1-0.1-0.2l-12.8-22c-5.3-9.1-17-12.3-26.2-7
	L87,137.7c0-0.1,0-0.3,0-0.4c4.9-48.9,33.2-92.5,76-116.8C186.3,7,212.7,0,239.6,0c53,0,104.5,27.3,132.9,76l0,0l5.9,10.1
	l-265.6,152l0,0L106.9,228z M182.5,104.5l12.6,21.6c5.4,9.2,17.2,12.3,26.5,7l32.9-18.8c9.2-5.2,12.4-16.8,7.2-26
	c0-0.1-0.1-0.1-0.1-0.2l-12.6-21.6c-5.4-9.2-17.2-12.3-26.5-7l-32.9,18.8c-9.2,5.2-12.4,16.9-7.2,26.1
	C182.5,104.4,182.5,104.5,182.5,104.5L182.5,104.5z"/>
</svg>
